<?xml version="1.0" encoding="utf-8"?>
<!-- Generator: Adobe Illustrator 25.2.1, SVG Export Plug-In . SVG Version: 6.00 Build 0)  -->
<svg version="1.1" id="Layer_1" xmlns="http://www.w3.org/2000/svg" xmlns:xlink="http://www.w3.org/1999/xlink" x="0px" y="0px"
	 viewBox="0 0 232 68" style="enable-background:new 0 0 232 68;" xml:space="preserve">
<style type="text/css">
	.st0{fill:#206BC4;}
	.st1{fill:#110D2A;}
	.st2{font-family:'AachenBT-Roman';}
	.st3{font-size:30px;}
</style>
<path class="st0" d="M51.2,21.2c-1.1-4.5-4.7-8-9.2-9.2c-8.5-1.4-17.1-1.4-25.6,0c-4.5,1.1-8,4.7-9.2,9.2c-1.4,8.5-1.4,17.1,0,25.6
	c1.1,4.5,4.7,8,9.2,9.2c8.5,1.4,17.1,1.4,25.6,0c4.5-1.1,8-4.7,9.2-9.2C52.6,38.3,52.6,29.7,51.2,21.2z M28.8,35.7
	c-2,3.2-4.7,5.9-8,7.9c-1.1,0.6-2.4,0.6-3.4,0.1c-1.1-0.6-1.7-1.7-1.8-2.9c0-1.2,0.6-2.4,1.7-2.9c1.7-1,3.2-2.3,4.4-3.8
	c-1.3-1.5-2.7-2.7-4.4-3.8c-1.7-0.9-2.2-3-1.2-4.6s3.1-2.1,4.7-1.1c3.2,2,5.9,4.7,8,7.8C29.4,33.3,29.4,34.6,28.8,35.7z M40.2,42.6
	H32c-1.5,0-2.7-0.7-2.7-2.2s1.2-2.2,2.7-2.2h8.2c1.5,0,2.7,0.7,2.7,2.2S41.7,42.6,40.2,42.6z"/>
<text transform="matrix(1 0 0 1 56.2734 45.4456)" class="st1 st2 st3">BERANGKUT</text>
</svg>
